# xmcd CD database file
# Copyright (C) 1993-1998 Ti Kan
#
# Track frame offsets:
# 150
# 17925
# 39525
# 66300
# 81000
# 103462
# 126225
# 147925
# 159437
# 176600
# 198625
# 217512
# 239500
# 252562
# 269150
#
# Disc length: 3772 seconds
# Revision: 0
# Processed by: cddbd v1.4b41PL1 Copyright (c) Steve Scherf et al.
# Submitted via: CDSpectrumPro v3.2.328
#
DISCID=e60eba0f
DTITLE=Various Artist - The Best of Tuck and Patti
DYEAR=1900
DGENRE=
TTITLE0=Tuck and Patti - Tears of Joy
TTITLE1=Tuck and Patti - Time After Time
TTITLE2=Castles made of sand - Little wing
TTITLE3=Tuck and Patti - Better Than Anything
TTITLE4=Tuck and Patti - Takes My Breath Away
TTITLE5=Tuck and Patti - Europa
TTITLE6=Tuck and Patti - Dream
TTITLE7=Tuck and Patti - Honey Pie
TTITLE8=Tuck and Patti - Love is the Key
TTITLE9=Tuck and Patti - Sitting in Limbo
TTITLE10=Tuck and Patti - Sweet P
TTITLE11=Tuck and Patti - Love Warriors
TTITLE12=Tuck and Patti - As Time Goes BY
TTITLE13=Tuck and Patti - My Romance
TTITLE14=Tuck and Patti - They can't Take That Away From Me
EXTD=
EXTT0=
EXTT1=
EXTT2=
EXTT3=
EXTT4=
EXTT5=
EXTT6=
EXTT7=
EXTT8=
EXTT9=
EXTT10=
EXTT11=
EXTT12=
EXTT13=
EXTT14=
PLAYORDER=
